<?xml version="1.0" encoding="UTF-8"?>
<svg xmlns="http://www.w3.org/2000/svg" version="1.1" xmlns:xlink="http://www.w3.org/1999/xlink" viewBox="0 0 869.6 945.2">
  <defs>
    <style>
      .cls-1 {
        fill: #000;
      }

      .cls-1, .cls-2 {
        stroke-width: 0px;
      }

      .cls-3 {
        display: none;
      }

      .cls-2 {
        fill: #424564;
      }
    </style>
  </defs>
  <g id="Layer_1" data-name="Layer 1">
    <g>
      <path class="cls-2" d="M575.2,494.5h-8s-9.7,0-9.7,0v-4.8c6.1-12,9.6-25.6,9.6-40,0-48.6-39.4-88-88-88h-2.2c-31.9,0-61.5,16.9-77.7,44.4l-24.1,41.1-24.1-41h0c-16.2-27.6-45.8-44.5-77.7-44.5h-2.2c-48.6,0-88,39.4-88,88s3.5,28,9.6,40c0,0,0,1.1-.1,3.2h-9.4s-8,0-8,0c-13.3,0-24,10.6-24.1,23.9,0,13.3,10.6,24,23.9,24.1h8s-1.3,304-1.3,304c-.2,44.2,35.4,80.2,79.6,80.4l224,1c44.2.2,80.2-35.4,80.4-79.6l1.3-304h8c13.3,0,24-10.6,24.1-23.9,0-13.3-10.6-24-23.9-24.1ZM271.1,409.6h2.2c14.9,0,28.8,7.9,36.3,20.8l34.8,59.2h-73.3c-22.1,0-40-17.9-40-40s17.9-40,40-40ZM518.3,845.6c0,17.7-14.3,32-32,32h-224c-17.7,0-32-14.3-32-32v-304h83.8l-27.4,51.9c-2.2,4.2,32.1-6,32.1-6,0,0,9.1,33.1,11.3,28.9l39.5-74.9h.4l29.2,77c1.7,4.4,16.7-28,16.7-28,0,0,30.9,15.1,29.2,10.6l-22.6-59.6h95.7v304ZM479.1,489.6h-73.3l34.8-59.2c7.6-12.9,21.4-20.8,36.3-20.8h2.2c22.1,0,40,17.9,40,40s-17.9,40-40,40Z"/>
      <path class="cls-2" d="M296.1,655.4c-8.8,0-16,5.3-16,11.9v154.2c0,6.5,7.2,11.9,16,11.9s16-5.3,16-11.9v-154.2c0-6.5-7.2-11.9-16-11.9Z"/>
      <path class="cls-2" d="M376.1,655.4c-8.8,0-16,5.3-16,11.9v154.2c0,6.5,7.2,11.9,16,11.9s16-5.3,16-11.9v-154.2c0-6.5-7.2-11.9-16-11.9Z"/>
      <path class="cls-2" d="M440.1,667.2v154.2c0,6.5,7.2,11.9,16,11.9s16-5.3,16-11.9v-154.2c0-6.5-7.2-11.9-16-11.9s-16,5.3-16,11.9Z"/>
    </g>
    <g class="cls-3">
      <path class="cls-1" d="M85.4,557.1"/>
      <path class="cls-1" d="M451.4,509.1c6.1-12,9.6-25.6,9.6-40,0-48.6-39.4-88-88-88h-2.2c-31.9,0-61.5,16.9-77.7,44.4l-24.1,41.1-24.1-41h0c-16.2-27.6-45.8-44.5-77.7-44.5h-2.2c-48.6,0-88,39.4-88,88s3.5,28,9.6,40c0,0-.6,18.8-1.2,48h366.1v-48ZM237,509.1h-72c-22.1,0-40-17.9-40-40s17.9-40,40-40h2.2c14.9,0,28.8,7.9,36.3,20.8l34.8,59.2h-1.3ZM334.5,449.9c7.6-12.9,21.4-20.8,36.3-20.8h2.2c22.1,0,40,17.9,40,40s-17.9,40-40,40h-73.3l34.8-59.2Z"/>
    </g>
    <image width="600" height="400" transform="translate(279.4 -63.4)" xlink:href="trashgift-1.png"/>
  </g>
  <g id="Layer_2" data-name="Layer 2">
    <rect class="cls-2" x="480.3" y="318.2" width="14.5" height="55.5" rx="7.2" ry="7.2" transform="translate(137.5 -138.6) rotate(18.8)"/>
    <rect class="cls-2" x="512.3" y="323.1" width="14.5" height="55.5" rx="7.2" ry="7.2" transform="translate(140.8 -148.7) rotate(18.8)"/>
    <path class="cls-2" d="M709.2,295.5l-56.3-.8s-147.7-94.8-154.6-99-11.8-11-12.9-19.8c-1.1-8.8-1-61.1-2.3-70.8-3.3-15.3-18-22.1-33.5-22.1-25.5,0-34.3,22.8-34.3,22.8-9.1,4.9-21.3,24.7-20.6,27.4s24.4,1.5,24.4,1.5l-9.1,85.3s-6.9,32.7,10.7,61.7c17.5,28.9,48.7,32.7,48.7,32.7,0,0,14.1,12.2,21.3,17.5s16.8-.8,16.8-.8l6.1-3.8,8.4,5.3c8.4,5.3,12.9-.8,12.9-.8l16-16s111.5,2.3,137,0c25.5-2.3,21.3-20.6,21.3-20.6ZM445.7,99.2c4.8,0,8.8,3.9,8.8,8.8s-3.9,8.8-8.8,8.8-8.8-3.9-8.8-8.8,3.9-8.8,8.8-8.8ZM471.9,187.8c-4,0-6.8-1.9-9.7-4.5-.7-.6-1.8-.7-2.6,0-2.8,2.2-5.6,4.1-9.3,4.1s-6.6-1.8-9.4-4.1c-.7-.6-1.8-.6-2.5,0-2.8,2.3-5.8,4.5-9.7,4.5-7.5,0-12.2-5-12.2-12.4s3.5,1.5,11,1.5,9-8.2,12.2-7.1c3.1-1.4,5.8,8.9,10.3,8.9s8.6-8.2,11.9-7.6c3.5.9,6,7.4,10.4,7.4,7.5,0,12.3-11.4,12.3-4s-5.1,13.3-12.6,13.3Z"/>
  </g>
</svg>